# xmcd CD database file
#
# Track frame offsets:
#	150
#	12879
#	30681
#	43397
#	54659
#	70747
#	83835
#	96456
#	107646
#	123800
#	136761
#	151589
#	163143
#	174890
#	189781
#	203323
#	220476
#	235081
#	246841
#	260044
#
# Disc length: 3618 seconds
#
# Revision: 0
# Processed by: cddbd v1.5.2PL0 Copyright (c) Steve Scherf et al.
# Submitted via: CDex 1.70beta2
#
DISCID=060e2014
DTITLE=Geary Hanley - The Comeback Trail
DYEAR=2008
DGENRE=Country
TTITLE0=How Much Is Love Worth
TTITLE1=I've Never Been Afraid Of Nothing
TTITLE2=Baby, You Caught Me With My Heart Down
TTITLE3=Tell Me What Is Wrong (And I'll Help You Make It Right)
TTITLE4=Nashville Tennessee
TTITLE5=The Comeback Trail
TTITLE6=Cindy
TTITLE7=I Ain't Perfect
TTITLE8=Time
TTITLE9=That Texas Tigress
TTITLE10=Lovers Or Friends
TTITLE11=Here I Am
TTITLE12=A Faster Train
TTITLE13=Tequila Bay
TTITLE14=Pieces
TTITLE15=feelin' Bad But Gettin' Better
TTITLE16=41 Dollars
TTITLE17=I Don't Wanna Judge You
TTITLE18=2052
TTITLE19=Somebody Else
EXTD=YEAR: 2008
EXTT0=
EXTT1=
EXTT2=
EXTT3=
EXTT4=
EXTT5=
EXTT6=
EXTT7=
EXTT8=
EXTT9=
EXTT10=
EXTT11=
EXTT12=
EXTT13=
EXTT14=
EXTT15=
EXTT16=
EXTT17=
EXTT18=
EXTT19=
PLAYORDER=
